<?xml version="1.0" encoding="UTF-8" standalone="no"?>
<!DOCTYPE svg PUBLIC "-//W3C//DTD SVG 1.1//EN"
 "http://www.w3.org/Graphics/SVG/1.1/DTD/svg11.dtd">
<!-- Generated by graphviz version 2.43.0 (0)
 -->
<!-- Title: pipeline_dag Pages: 1 -->
<svg width="452pt" height="523pt"
 viewBox="0.00 0.00 451.99 523.00" xmlns="http://www.w3.org/2000/svg" xmlns:xlink="http://www.w3.org/1999/xlink">
<g id="graph0" class="graph" transform="scale(1 1) rotate(0) translate(4 519)">
<title>pipeline_dag</title>
<polygon fill="white" stroke="transparent" points="-4,4 -4,-519 447.99,-519 447.99,4 -4,4"/>
<!-- v0 -->
<g id="node1" class="node">
<title>v0</title>
<ellipse fill="black" stroke="black" cx="109.84" cy="-291.2" rx="3.6" ry="3.6"/>
</g>
<!-- v1 -->
<g id="node2" class="node">
<title>v1</title>
<ellipse fill="none" stroke="black" cx="109.84" cy="-218.6" rx="109.68" ry="18"/>
<text text-anchor="middle" x="109.84" y="-214.9" font-family="Times,serif" font-size="14.00">log_pairing_warnings</text>
</g>
<!-- v0&#45;&gt;v1 -->
<g id="edge1" class="edge">
<title>v0&#45;&gt;v1</title>
<path fill="none" stroke="black" d="M109.84,-287.52C109.84,-280.85 109.84,-262.9 109.84,-247.13"/>
<polygon fill="black" stroke="black" points="113.34,-246.73 109.84,-236.73 106.34,-246.73 113.34,-246.73"/>
<text text-anchor="middle" x="144.84" y="-258.4" font-family="Times,serif" font-size="14.00">read_glob</text>
</g>
<!-- v15 -->
<g id="node3" class="node">
<title>v15</title>
<ellipse fill="none" stroke="black" cx="113.84" cy="-131.6" rx="92.88" ry="18"/>
<text text-anchor="middle" x="113.84" y="-127.9" font-family="Times,serif" font-size="14.00">batch_log_finalize</text>
</g>
<!-- v1&#45;&gt;v15 -->
<g id="edge2" class="edge">
<title>v1&#45;&gt;v15</title>
<path fill="none" stroke="black" d="M110.65,-200.4C111.2,-188.76 111.93,-173.15 112.56,-159.84"/>
<polygon fill="black" stroke="black" points="116.06,-159.93 113.03,-149.78 109.07,-159.6 116.06,-159.93"/>
</g>
<!-- v16 -->
<g id="node17" class="node">
<title>v16</title>
<ellipse fill="black" stroke="black" cx="113.84" cy="-58.6" rx="1.8" ry="1.8"/>
</g>
<!-- v15&#45;&gt;v16 -->
<g id="edge16" class="edge">
<title>v15&#45;&gt;v16</title>
<path fill="none" stroke="black" d="M113.84,-113.41C113.84,-100.17 113.84,-82.25 113.84,-70.81"/>
<polygon fill="black" stroke="black" points="117.34,-70.43 113.84,-60.43 110.34,-70.43 117.34,-70.43"/>
</g>
<!-- v2 -->
<g id="node4" class="node">
<title>v2</title>
<ellipse fill="black" stroke="black" cx="190.84" cy="-496.4" rx="3.6" ry="3.6"/>
<text text-anchor="middle" x="107.24" y="-503.8" font-family="Times,serif" font-size="14.00">Channel.fromFilePairs</text>
</g>
<!-- v3 -->
<g id="node5" class="node">
<title>v3</title>
<ellipse fill="none" stroke="black" cx="190.84" cy="-452.3" rx="3.5" ry="3.5"/>
<text text-anchor="middle" x="158.34" y="-459.6" font-family="Times,serif" font-size="14.00">ifEmpty</text>
</g>
<!-- v2&#45;&gt;v3 -->
<g id="edge3" class="edge">
<title>v2&#45;&gt;v3</title>
<path fill="none" stroke="black" d="M190.84,-492.64C190.84,-487.35 190.84,-475.48 190.84,-466.15"/>
<polygon fill="black" stroke="black" points="194.34,-466.13 190.84,-456.13 187.34,-466.13 194.34,-466.13"/>
</g>
<!-- v4 -->
<g id="node6" class="node">
<title>v4</title>
<ellipse fill="none" stroke="black" cx="190.84" cy="-408.3" rx="3.5" ry="3.5"/>
<text text-anchor="middle" x="171.84" y="-415.6" font-family="Times,serif" font-size="14.00">map</text>
</g>
<!-- v3&#45;&gt;v4 -->
<g id="edge4" class="edge">
<title>v3&#45;&gt;v4</title>
<path fill="none" stroke="black" d="M190.84,-448.54C190.84,-443.27 190.84,-431.43 190.84,-422.12"/>
<polygon fill="black" stroke="black" points="194.34,-422.12 190.84,-412.12 187.34,-422.12 194.34,-422.12"/>
</g>
<!-- v5 -->
<g id="node7" class="node">
<title>v5</title>
<ellipse fill="none" stroke="black" cx="190.84" cy="-349.8" rx="96.68" ry="18"/>
<text text-anchor="middle" x="190.84" y="-346.1" font-family="Times,serif" font-size="14.00">r1_variant_splitter</text>
</g>
<!-- v4&#45;&gt;v5 -->
<g id="edge5" class="edge">
<title>v4&#45;&gt;v5</title>
<path fill="none" stroke="black" d="M190.84,-404.57C190.84,-399.63 190.84,-388.7 190.84,-377.97"/>
<polygon fill="black" stroke="black" points="194.34,-377.95 190.84,-367.95 187.34,-377.95 194.34,-377.95"/>
</g>
<!-- v9 -->
<g id="node8" class="node">
<title>v9</title>
<ellipse fill="black" stroke="black" cx="140.84" cy="-291.2" rx="1.8" ry="1.8"/>
</g>
<!-- v5&#45;&gt;v9 -->
<g id="edge6" class="edge">
<title>v5&#45;&gt;v9</title>
<path fill="none" stroke="black" d="M175.84,-331.82C166.78,-321.56 155.62,-308.93 148.37,-300.73"/>
<polygon fill="black" stroke="black" points="150.98,-298.4 141.74,-293.22 145.74,-303.03 150.98,-298.4"/>
</g>
<!-- v8 -->
<g id="node9" class="node">
<title>v8</title>
<ellipse fill="black" stroke="black" cx="165.84" cy="-291.2" rx="1.8" ry="1.8"/>
</g>
<!-- v5&#45;&gt;v8 -->
<g id="edge7" class="edge">
<title>v5&#45;&gt;v8</title>
<path fill="none" stroke="black" d="M183.34,-331.82C179.11,-322.24 173.97,-310.6 170.36,-302.42"/>
<polygon fill="black" stroke="black" points="173.53,-300.95 166.29,-293.22 167.13,-303.78 173.53,-300.95"/>
</g>
<!-- v7 -->
<g id="node10" class="node">
<title>v7</title>
<ellipse fill="black" stroke="black" cx="190.84" cy="-291.2" rx="1.8" ry="1.8"/>
</g>
<!-- v5&#45;&gt;v7 -->
<g id="edge8" class="edge">
<title>v5&#45;&gt;v7</title>
<path fill="none" stroke="black" d="M190.84,-331.51C190.84,-322.41 190.84,-311.5 190.84,-303.49"/>
<polygon fill="black" stroke="black" points="194.34,-303.21 190.84,-293.21 187.34,-303.21 194.34,-303.21"/>
</g>
<!-- v6 -->
<g id="node11" class="node">
<title>v6</title>
<ellipse fill="black" stroke="black" cx="215.84" cy="-291.2" rx="1.8" ry="1.8"/>
</g>
<!-- v5&#45;&gt;v6 -->
<g id="edge9" class="edge">
<title>v5&#45;&gt;v6</title>
<path fill="none" stroke="black" d="M198.34,-331.82C202.57,-322.24 207.71,-310.6 211.32,-302.42"/>
<polygon fill="black" stroke="black" points="214.55,-303.78 215.39,-293.22 208.15,-300.95 214.55,-303.78"/>
</g>
<!-- v10 -->
<g id="node12" class="node">
<title>v10</title>
<ellipse fill="none" stroke="black" cx="240.84" cy="-291.2" rx="3.5" ry="3.5"/>
<text text-anchor="middle" x="213.84" y="-298.5" font-family="Times,serif" font-size="14.00">collect</text>
</g>
<!-- v5&#45;&gt;v10 -->
<g id="edge10" class="edge">
<title>v5&#45;&gt;v10</title>
<path fill="none" stroke="black" d="M205.84,-331.82C214.44,-322.08 224.93,-310.21 232.17,-302.01"/>
<polygon fill="black" stroke="black" points="234.87,-304.24 238.87,-294.43 229.63,-299.6 234.87,-304.24"/>
</g>
<!-- v11 -->
<g id="node13" class="node">
<title>v11</title>
<ellipse fill="none" stroke="black" cx="240.84" cy="-218.6" rx="3.5" ry="3.5"/>
<text text-anchor="middle" x="252.84" y="-225.9" font-family="Times,serif" font-size="14.00">map</text>
</g>
<!-- v10&#45;&gt;v11 -->
<g id="edge11" class="edge">
<title>v10&#45;&gt;v11</title>
<path fill="none" stroke="black" d="M240.84,-287.52C240.84,-278.61 240.84,-249.58 240.84,-232.49"/>
<polygon fill="black" stroke="black" points="244.34,-232.28 240.84,-222.28 237.34,-232.28 244.34,-232.28"/>
</g>
<!-- v11&#45;&gt;v15 -->
<g id="edge15" class="edge">
<title>v11&#45;&gt;v15</title>
<path fill="none" stroke="black" d="M239.83,-215.21C238.13,-211.49 234.34,-204.34 228.84,-200.6 200.85,-181.56 183.49,-200.62 154.84,-182.6 145.05,-176.44 136.49,-167.14 129.77,-158.22"/>
<polygon fill="black" stroke="black" points="132.53,-156.06 123.9,-149.9 126.81,-160.09 132.53,-156.06"/>
<text text-anchor="middle" x="195.84" y="-171.4" font-family="Times,serif" font-size="14.00">done_token</text>
</g>
<!-- v12 -->
<g id="node14" class="node">
<title>v12</title>
<ellipse fill="none" stroke="black" cx="239.84" cy="-131.6" rx="3.5" ry="3.5"/>
<text text-anchor="middle" x="251.84" y="-138.9" font-family="Times,serif" font-size="14.00">map</text>
</g>
<!-- v11&#45;&gt;v12 -->
<g id="edge12" class="edge">
<title>v11&#45;&gt;v12</title>
<path fill="none" stroke="black" d="M240.81,-214.77C240.68,-204.09 240.23,-165.79 239.99,-145.47"/>
<polygon fill="black" stroke="black" points="243.49,-145.14 239.87,-135.18 236.49,-145.22 243.49,-145.14"/>
</g>
<!-- v17 -->
<g id="node18" class="node">
<title>v17</title>
<ellipse fill="none" stroke="black" cx="265.84" cy="-131.6" rx="3.5" ry="3.5"/>
<text text-anchor="middle" x="246.84" y="-116.9" font-family="Times,serif" font-size="14.00">map</text>
</g>
<!-- v11&#45;&gt;v17 -->
<g id="edge17" class="edge">
<title>v11&#45;&gt;v17</title>
<path fill="none" stroke="black" d="M241.56,-215.15C244.56,-204.96 256.15,-165.55 262.17,-145.09"/>
<polygon fill="black" stroke="black" points="265.6,-145.81 265.07,-135.23 258.89,-143.83 265.6,-145.81"/>
</g>
<!-- v13 -->
<g id="node15" class="node">
<title>v13</title>
<ellipse fill="none" stroke="black" cx="236.84" cy="-58.6" rx="96.68" ry="18"/>
<text text-anchor="middle" x="236.84" y="-54.9" font-family="Times,serif" font-size="14.00">summarize_counts</text>
</g>
<!-- v12&#45;&gt;v13 -->
<g id="edge13" class="edge">
<title>v12&#45;&gt;v13</title>
<path fill="none" stroke="black" d="M239.73,-127.9C239.44,-121.13 238.67,-102.8 237.99,-86.83"/>
<polygon fill="black" stroke="black" points="241.49,-86.67 237.57,-76.82 234.49,-86.96 241.49,-86.67"/>
</g>
<!-- v14 -->
<g id="node16" class="node">
<title>v14</title>
<ellipse fill="black" stroke="black" cx="236.84" cy="-1.8" rx="1.8" ry="1.8"/>
</g>
<!-- v13&#45;&gt;v14 -->
<g id="edge14" class="edge">
<title>v13&#45;&gt;v14</title>
<path fill="none" stroke="black" d="M236.84,-40.56C236.84,-31.87 236.84,-21.56 236.84,-13.9"/>
<polygon fill="black" stroke="black" points="240.34,-13.76 236.84,-3.76 233.34,-13.76 240.34,-13.76"/>
</g>
<!-- v18 -->
<g id="node19" class="node">
<title>v18</title>
<ellipse fill="none" stroke="black" cx="397.84" cy="-58.6" rx="46.29" ry="18"/>
<text text-anchor="middle" x="397.84" y="-54.9" font-family="Times,serif" font-size="14.00">multiqc</text>
</g>
<!-- v17&#45;&gt;v18 -->
<g id="edge18" class="edge">
<title>v17&#45;&gt;v18</title>
<path fill="none" stroke="black" d="M268.6,-129.12C280.54,-122.69 328.76,-96.76 362.79,-78.45"/>
<polygon fill="black" stroke="black" points="364.82,-81.33 371.97,-73.51 361.51,-75.17 364.82,-81.33"/>
</g>
<!-- v19 -->
<g id="node20" class="node">
<title>v19</title>
<ellipse fill="black" stroke="black" cx="397.84" cy="-1.8" rx="1.8" ry="1.8"/>
</g>
<!-- v18&#45;&gt;v19 -->
<g id="edge19" class="edge">
<title>v18&#45;&gt;v19</title>
<path fill="none" stroke="black" d="M397.84,-40.56C397.84,-31.87 397.84,-21.56 397.84,-13.9"/>
<polygon fill="black" stroke="black" points="401.34,-13.76 397.84,-3.76 394.34,-13.76 401.34,-13.76"/>
</g>
</g>
</svg>
